<svg width="100%" height="100%" viewBox="0 0 840 480" style="" aria-label="Organizational chart" aria-multiselectable="false" role="tree"><g data-self="root-tree_84ff774e4" transform="translate(0, 0)" style="color: #e0e0e0; font-family: ; font-size: 14px; font-weight: 400;" id="root-tree_84ff774e4"><path d="M 190 210 L 190 210 L 190 210 L 190 210 C  190 185 190 185 215 185 L 395 185 C  420 185 420 185 420 160 L 420 160" id="code-to-docs-core" fill="none" stroke="#A1A1A1" stroke-width="1"></path><path d="M 420 210 L 420 210 L 420 210 L 420 185 C  420 185 420 185 420 185 L 420 185 C  420 185 420 185 420 185 L 420 160" id="code-to-docs-automation" fill="none" stroke="#A1A1A1" stroke-width="1"></path><path d="M 650 210 L 650 210 L 650 210 L 650 210 C  650 185 650 185 625 185 L 445 185 C  420 185 420 185 420 160 L 420 160" id="code-to-docs-tooling" fill="none" stroke="#A1A1A1" stroke-width="1"></path><path d="M 190 320 L 190 320 L 190 320 L 190 295 C  190 295 190 295 190 295 L 190 295 C  190 295 190 295 190 295 L 190 270" id="core-skill-definition" fill="none" stroke="#A1A1A1" stroke-width="1"></path><path d="M 420 320 L 420 320 L 420 320 L 420 295 C  420 295 420 295 420 295 L 420 295 C  420 295 420 295 420 295 L 420 270" id="automation-hook-automation" fill="none" stroke="#A1A1A1" stroke-width="1"></path><path d="M 650 320 L 650 320 L 650 320 L 650 295 C  650 295 650 295 650 295 L 650 295 C  650 295 650 295 650 295 L 650 270" id="tooling-release-tooling" fill="none" stroke="#A1A1A1" stroke-width="1"></path><g data-self="code-to-docs" transform="translate(330, 100)" data-depth="0" style="color: #e0e0e0; font-family: ; font-size: 14px; font-weight: 400;" aria-label="code-to-docs, level 1, 1 of 1, expanded" aria-level="1" aria-posinset="1" aria-selected="false" aria-setsize="1" role="treeitem" tabindex="0" aria-expanded="true"><foreignObject height="60" width="180" class="apextree-node"><div xmlns="http://www.w3.org/1999/xhtml" style="background-color: #FFFFFF; border-color: #7c3aed; border-radius: 5px; border-style: solid; border-width: 1px; box-sizing: border-box; height: 100%;"><div style="display: flex;justify-content: center;align-items: center; text-align: center; height: 100%;">code-to-docs</div></div></foreignObject><g transform="translate(83, 53)" role="button" aria-label="Collapse node" tabindex="-1"><circle cx="7" cy="7" r="7" fill="#FFFFFF" stroke="#BCBCBC" stroke-width="1"></circle><svg xmlns="http://www.w3.org/2000/svg" viewBox="0 0 24 24" width="14" height="14" pointer-events="none"><path d="m12,0C5.383,0,0,5.383,0,12s5.383,12,12,12,12-5.383,12-12S18.617,0,12,0Zm0,22c-5.514,0-10-4.486-10-10S6.486,2,12,2s10,4.486,10,10-4.486,10-10,10Zm5-10c0,.552-.448,1-1,1h-8c-.552,0-1-.448-1-1s.448-1,1-1h8c.552,0,1,.448,1,1Z"></path></svg></g></g><g data-parent="code-to-docs" data-self="core" transform="translate(100, 210)" data-depth="1" style="color: #e0e0e0; font-family: ; font-size: 14px; font-weight: 400;" aria-label="Core, level 2, 1 of 3, expanded" aria-level="2" aria-posinset="1" aria-selected="false" aria-setsize="3" role="treeitem" tabindex="-1" aria-expanded="true"><foreignObject height="60" width="180" class="apextree-node"><div xmlns="http://www.w3.org/1999/xhtml" style="background-color: #FFFFFF; border-color: #7c3aed; border-radius: 5px; border-style: solid; border-width: 1px; box-sizing: border-box; height: 100%;"><div style="display: flex;justify-content: center;align-items: center; text-align: center; height: 100%;">Core</div></div></foreignObject><g transform="translate(83, 53)" role="button" aria-label="Collapse node" tabindex="-1"><circle cx="7" cy="7" r="7" fill="#FFFFFF" stroke="#BCBCBC" stroke-width="1"></circle><svg xmlns="http://www.w3.org/2000/svg" viewBox="0 0 24 24" width="14" height="14" pointer-events="none"><path d="m12,0C5.383,0,0,5.383,0,12s5.383,12,12,12,12-5.383,12-12S18.617,0,12,0Zm0,22c-5.514,0-10-4.486-10-10S6.486,2,12,2s10,4.486,10,10-4.486,10-10,10Zm5-10c0,.552-.448,1-1,1h-8c-.552,0-1-.448-1-1s.448-1,1-1h8c.552,0,1,.448,1,1Z"></path></svg></g></g><g data-parent="core" data-self="skill-definition" transform="translate(100, 320)" data-depth="2" style="color: #e0e0e0; font-family: ; font-size: 14px; font-weight: 400;" aria-label="Skill Definition, level 3, 1 of 1" aria-level="3" aria-posinset="1" aria-selected="false" aria-setsize="1" role="treeitem" tabindex="-1"><foreignObject height="60" width="180" class="apextree-node"><div xmlns="http://www.w3.org/1999/xhtml" style="background-color: #FFFFFF; border-color: #7c3aed; border-radius: 5px; border-style: solid; border-width: 1px; box-sizing: border-box; height: 100%;"><div style="display: flex;justify-content: center;align-items: center; text-align: center; height: 100%;">Skill Definition</div></div></foreignObject></g><g data-parent="code-to-docs" data-self="automation" transform="translate(330, 210)" data-depth="1" style="color: #e0e0e0; font-family: ; font-size: 14px; font-weight: 400;" aria-label="Automation, level 2, 2 of 3, expanded" aria-level="2" aria-posinset="2" aria-selected="false" aria-setsize="3" role="treeitem" tabindex="-1" aria-expanded="true"><foreignObject height="60" width="180" class="apextree-node"><div xmlns="http://www.w3.org/1999/xhtml" style="background-color: #FFFFFF; border-color: #7c3aed; border-radius: 5px; border-style: solid; border-width: 1px; box-sizing: border-box; height: 100%;"><div style="display: flex;justify-content: center;align-items: center; text-align: center; height: 100%;">Automation</div></div></foreignObject><g transform="translate(83, 53)" role="button" aria-label="Collapse node" tabindex="-1"><circle cx="7" cy="7" r="7" fill="#FFFFFF" stroke="#BCBCBC" stroke-width="1"></circle><svg xmlns="http://www.w3.org/2000/svg" viewBox="0 0 24 24" width="14" height="14" pointer-events="none"><path d="m12,0C5.383,0,0,5.383,0,12s5.383,12,12,12,12-5.383,12-12S18.617,0,12,0Zm0,22c-5.514,0-10-4.486-10-10S6.486,2,12,2s10,4.486,10,10-4.486,10-10,10Zm5-10c0,.552-.448,1-1,1h-8c-.552,0-1-.448-1-1s.448-1,1-1h8c.552,0,1,.448,1,1Z"></path></svg></g></g><g data-parent="automation" data-self="hook-automation" transform="translate(330, 320)" data-depth="2" style="color: #e0e0e0; font-family: ; font-size: 14px; font-weight: 400;" aria-label="Hook Automation, level 3, 1 of 1" aria-level="3" aria-posinset="1" aria-selected="false" aria-setsize="1" role="treeitem" tabindex="-1"><foreignObject height="60" width="180" class="apextree-node"><div xmlns="http://www.w3.org/1999/xhtml" style="background-color: #FFFFFF; border-color: #7c3aed; border-radius: 5px; border-style: solid; border-width: 1px; box-sizing: border-box; height: 100%;"><div style="display: flex;justify-content: center;align-items: center; text-align: center; height: 100%;">Hook Automation</div></div></foreignObject></g><g data-parent="code-to-docs" data-self="tooling" transform="translate(560, 210)" data-depth="1" style="color: #e0e0e0; font-family: ; font-size: 14px; font-weight: 400;" aria-label="Tooling, level 2, 3 of 3, expanded" aria-level="2" aria-posinset="3" aria-selected="false" aria-setsize="3" role="treeitem" tabindex="-1" aria-expanded="true"><foreignObject height="60" width="180" class="apextree-node"><div xmlns="http://www.w3.org/1999/xhtml" style="background-color: #FFFFFF; border-color: #7c3aed; border-radius: 5px; border-style: solid; border-width: 1px; box-sizing: border-box; height: 100%;"><div style="display: flex;justify-content: center;align-items: center; text-align: center; height: 100%;">Tooling</div></div></foreignObject><g transform="translate(83, 53)" role="button" aria-label="Collapse node" tabindex="-1"><circle cx="7" cy="7" r="7" fill="#FFFFFF" stroke="#BCBCBC" stroke-width="1"></circle><svg xmlns="http://www.w3.org/2000/svg" viewBox="0 0 24 24" width="14" height="14" pointer-events="none"><path d="m12,0C5.383,0,0,5.383,0,12s5.383,12,12,12,12-5.383,12-12S18.617,0,12,0Zm0,22c-5.514,0-10-4.486-10-10S6.486,2,12,2s10,4.486,10,10-4.486,10-10,10Zm5-10c0,.552-.448,1-1,1h-8c-.552,0-1-.448-1-1s.448-1,1-1h8c.552,0,1,.448,1,1Z"></path></svg></g></g><g data-parent="tooling" data-self="release-tooling" transform="translate(560, 320)" data-depth="2" style="color: #e0e0e0; font-family: ; font-size: 14px; font-weight: 400;" aria-label="Release Tooling, level 3, 1 of 1" aria-level="3" aria-posinset="1" aria-selected="false" aria-setsize="1" role="treeitem" tabindex="-1"><foreignObject height="60" width="180" class="apextree-node"><div xmlns="http://www.w3.org/1999/xhtml" style="background-color: #FFFFFF; border-color: #7c3aed; border-radius: 5px; border-style: solid; border-width: 1px; box-sizing: border-box; height: 100%;"><div style="display: flex;justify-content: center;align-items: center; text-align: center; height: 100%;">Release Tooling</div></div></foreignObject></g></g></svg>